# xmcd CD database file
#
# Track frame offsets:
#	150
#	900
#	1650
#	2400
#	90546
#	332550
#
# Disc length: 4440 seconds
#
# Revision: 1
# Processed by: cddbd v1.5.1PL0 Copyright (c) Steve Scherf et al.
# Submitted via: CDex 1.51
#
DISCID=27115606
DTITLE=玉置成美 - Believe Repoduction -GUNDAMM SEED EDITION-
DYEAR=2003
DGENRE=JPop
TTITLE0=Believe -Evidence01 Mix-
TTITLE1=Believe -FREEDOMM G CONTROL MIX-
TTITLE2=Final mmemory
TTITLE3=Final Mmemory -happy hardcore mix-
TTITLE4=DATA TRACK
TTITLE5=DATA TRACK
EXTD=YEAR: 2003
EXTT0=
EXTT1=
EXTT2=
EXTT3=
EXTT4=
EXTT5=
PLAYORDER=
